  0
SECTION
  2
HEADER
  9
$ACADVER
  1
AC1024
  9
$ACADMAINTVER
 70
6
  9
$DWGCODEPAGE
  3
ANSI_1252
  9
$LASTSAVEDBY
  1
ezdxf
  9
$INSBASE
 10
0.0
 20
0.0
 30
0.0
  9
$EXTMIN
 10
1e+20
 20
1e+20
 30
1e+20
  9
$EXTMAX
 10
-1e+20
 20
-1e+20
 30
-1e+20
  9
$LIMMIN
 10
0.0
 20
0.0
  9
$LIMMAX
 10
420.0
 20
297.0
  9
$ORTHOMODE
 70
0
  9
$REGENMODE
 70
1
  9
$FILLMODE
 70
1
  9
$QTEXTMODE
 70
0
  9
$MIRRTEXT
 70
1
  9
$LTSCALE
 40
1.0
  9
$ATTMODE
 70
1
  9
$TEXTSIZE
 40
2.5
  9
$TRACEWID
 40
1.0
  9
$TEXTSTYLE
  7
Standard
  9
$CLAYER
  8
0
  9
$CELTYPE
  6
ByLayer
  9
$CECOLOR
 62
256
  9
$CELTSCALE
 40
1.0
  9
$DISPSILH
 70
0
  9
$DIMSCALE
 40
1.0
  9
$DIMASZ
 40
2.5
  9
$DIMEXO
 40
0.625
  9
$DIMDLI
 40
3.75
  9
$DIMRND
 40
0.0
  9
$DIMDLE
 40
0.0
  9
$DIMEXE
 40
1.25
  9
$DIMTP
 40
0.0
  9
$DIMTM
 40
0.0
  9
$DIMTXT
 40
2.5
  9
$DIMCEN
 40
2.5
  9
$DIMTSZ
 40
0.0
  9
$DIMTOL
 70
0
  9
$DIMLIM
 70
0
  9
$DIMTIH
 70
0
  9
$DIMTOH
 70
0
  9
$DIMSE1
 70
0
  9
$DIMSE2
 70
0
  9
$DIMTAD
 70
1
  9
$DIMZIN
 70
8
  9
$DIMBLK
  1

  9
$DIMASO
 70
1
  9
$DIMSHO
 70
1
  9
$DIMPOST
  1

  9
$DIMAPOST
  1

  9
$DIMALT
 70
0
  9
$DIMALTD
 70
3
  9
$DIMALTF
 40
0.03937007874
  9
$DIMLFAC
 40
1.0
  9
$DIMTOFL
 70
1
  9
$DIMTVP
 40
0.0
  9
$DIMTIX
 70
0
  9
$DIMSOXD
 70
0
  9
$DIMSAH
 70
0
  9
$DIMBLK1
  1

  9
$DIMBLK2
  1

  9
$DIMSTYLE
  2
ISO-25
  9
$DIMCLRD
 70
0
  9
$DIMCLRE
 70
0
  9
$DIMCLRT
 70
0
  9
$DIMTFAC
 40
1.0
  9
$DIMGAP
 40
0.625
  9
$DIMJUST
 70
0
  9
$DIMSD1
 70
0
  9
$DIMSD2
 70
0
  9
$DIMTOLJ
 70
0
  9
$DIMTZIN
 70
8
  9
$DIMALTZ
 70
0
  9
$DIMALTTZ
 70
0
  9
$DIMUPT
 70
0
  9
$DIMDEC
 70
2
  9
$DIMTDEC
 70
2
  9
$DIMALTU
 70
2
  9
$DIMALTTD
 70
3
  9
$DIMTXSTY
  7
Standard
  9
$DIMAUNIT
 70
0
  9
$DIMADEC
 70
0
  9
$DIMALTRND
 40
0.0
  9
$DIMAZIN
 70
0
  9
$DIMDSEP
 70
44
  9
$DIMATFIT
 70
3
  9
$DIMFRAC
 70
0
  9
$DIMLDRBLK
  1

  9
$DIMLUNIT
 70
2
  9
$DIMLWD
 70
-2
  9
$DIMLWE
 70
-2
  9
$DIMTMOVE
 70
0
  9
$DIMFXL
 40
1.0
  9
$DIMFXLON
 70
0
  9
$DIMJOGANG
 40
0.785398163397
  9
$DIMTFILL
 70
0
  9
$DIMTFILLCLR
 70
0
  9
$DIMARCSYM
 70
0
  9
$DIMLTYPE
  6

  9
$DIMLTEX1
  6

  9
$DIMLTEX2
  6

  9
$DIMTXTDIRECTION
 70
0
  9
$LUNITS
 70
2
  9
$LUPREC
 70
4
  9
$SKETCHINC
 40
1.0
  9
$FILLETRAD
 40
10.0
  9
$AUNITS
 70
0
  9
$AUPREC
 70
2
  9
$MENU
  1
.
  9
$ELEVATION
 40
0.0
  9
$PELEVATION
 40
0.0
  9
$THICKNESS
 40
0.0
  9
$LIMCHECK
 70
0
  9
$CHAMFERA
 40
0.0
  9
$CHAMFERB
 40
0.0
  9
$CHAMFERC
 40
0.0
  9
$CHAMFERD
 40
0.0
  9
$SKPOLY
 70
0
  9
$TDCREATE
 40
2461010.705
  9
$TDUCREATE
 40
2458532.153996898
  9
$TDUPDATE
 40
2461010.705
  9
$TDUUPDATE
 40
2458532.1544311
  9
$TDINDWG
 40
0.0
  9
$TDUSRTIMER
 40
0.0
  9
$USRTIMER
 70
1
  9
$ANGBASE
 50
0.0
  9
$ANGDIR
 70
0
  9
$PDMODE
 70
0
  9
$PDSIZE
 40
0.0
  9
$PLINEWID
 40
0.0
  9
$SPLFRAME
 70
0
  9
$SPLINETYPE
 70
6
  9
$SPLINESEGS
 70
8
  9
$HANDSEED
  5
35
  9
$SURFTAB1
 70
6
  9
$SURFTAB2
 70
6
  9
$SURFTYPE
 70
6
  9
$SURFU
 70
6
  9
$SURFV
 70
6
  9
$UCSBASE
  2

  9
$UCSNAME
  2

  9
$UCSORG
 10
0.0
 20
0.0
 30
0.0
  9
$UCSXDIR
 10
1.0
 20
0.0
 30
0.0
  9
$UCSYDIR
 10
0.0
 20
1.0
 30
0.0
  9
$UCSORTHOREF
  2

  9
$UCSORTHOVIEW
 70
0
  9
$UCSORGTOP
 10
0.0
 20
0.0
 30
0.0
  9
$UCSORGBOTTOM
 10
0.0
 20
0.0
 30
0.0
  9
$UCSORGLEFT
 10
0.0
 20
0.0
 30
0.0
  9
$UCSORGRIGHT
 10
0.0
 20
0.0
 30
0.0
  9
$UCSORGFRONT
 10
0.0
 20
0.0
 30
0.0
  9
$UCSORGBACK
 10
0.0
 20
0.0
 30
0.0
  9
$PUCSBASE
  2

  9
$PUCSNAME
  2

  9
$PUCSORG
 10
0.0
 20
0.0
 30
0.0
  9
$PUCSXDIR
 10
1.0
 20
0.0
 30
0.0
  9
$PUCSYDIR
 10
0.0
 20
1.0
 30
0.0
  9
$PUCSORTHOREF
  2

  9
$PUCSORTHOVIEW
 70
0
  9
$PUCSORGTOP
 10
0.0
 20
0.0
 30
0.0
  9
$PUCSORGBOTTOM
 10
0.0
 20
0.0
 30
0.0
  9
$PUCSORGLEFT
 10
0.0
 20
0.0
 30
0.0
  9
$PUCSORGRIGHT
 10
0.0
 20
0.0
 30
0.0
  9
$PUCSORGFRONT
 10
0.0
 20
0.0
 30
0.0
  9
$PUCSORGBACK
 10
0.0
 20
0.0
 30
0.0
  9
$USERI1
 70
0
  9
$USERI2
 70
0
  9
$USERI3
 70
0
  9
$USERI4
 70
0
  9
$USERI5
 70
0
  9
$USERR1
 40
0.0
  9
$USERR2
 40
0.0
  9
$USERR3
 40
0.0
  9
$USERR4
 40
0.0
  9
$USERR5
 40
0.0
  9
$WORLDVIEW
 70
1
  9
$SHADEDGE
 70
3
  9
$SHADEDIF
 70
70
  9
$TILEMODE
 70
1
  9
$MAXACTVP
 70
64
  9
$PINSBASE
 10
0.0
 20
0.0
 30
0.0
  9
$PLIMCHECK
 70
0
  9
$PEXTMIN
 10
1e+20
 20
1e+20
 30
1e+20
  9
$PEXTMAX
 10
-1e+20
 20
-1e+20
 30
-1e+20
  9
$PLIMMIN
 10
0.0
 20
0.0
  9
$PLIMMAX
 10
420.0
 20
297.0
  9
$UNITMODE
 70
0
  9
$VISRETAIN
 70
1
  9
$PLINEGEN
 70
0
  9
$PSLTSCALE
 70
1
  9
$TREEDEPTH
 70
3020
  9
$CMLSTYLE
  2
Standard
  9
$CMLJUST
 70
0
  9
$CMLSCALE
 40
20.0
  9
$PROXYGRAPHICS
 70
1
  9
$MEASUREMENT
 70
1
  9
$CELWEIGHT
370
-1
  9
$ENDCAPS
280
0
  9
$JOINSTYLE
280
0
  9
$LWDISPLAY
290
0
  9
$INSUNITS
 70
6
  9
$HYPERLINKBASE
  1

  9
$STYLESHEET
  1

  9
$XEDIT
290
1
  9
$CEPSNTYPE
380
0
  9
$PSTYLEMODE
290
1
  9
$FINGERPRINTGUID
  2
{3B1C441D-3487-4A14-A0D2-E8050A3CB018}
  9
$VERSIONGUID
  2
{2F90DB0B-A0F8-4829-BDE3-05776F44BF0E}
  9
$EXTNAMES
290
1
  9
$PSVPSCALE
 40
0.0
  9
$OLESTARTUP
290
0
  9
$SORTENTS
280
127
  9
$INDEXCTL
280
0
  9
$HIDETEXT
280
1
  9
$XCLIPFRAME
280
1
  9
$HALOGAP
280
0
  9
$OBSCOLOR
 70
257
  9
$OBSLTYPE
280
0
  9
$INTERSECTIONDISPLAY
280
0
  9
$INTERSECTIONCOLOR
 70
257
  9
$DIMASSOC
280
2
  9
$PROJECTNAME
  1

  9
$CAMERADISPLAY
290
0
  9
$LENSLENGTH
 40
50.0
  9
$CAMERAHEIGHT
 40
0.0
  9
$STEPSPERSEC
 40
24.0
  9
$STEPSIZE
 40
100.0
  9
$3DDWFPREC
 40
2.0
  9
$PSOLWIDTH
 40
0.005
  9
$PSOLHEIGHT
 40
0.08
  9
$LOFTANG1
 40
1.570796326795
  9
$LOFTANG2
 40
1.570796326795
  9
$LOFTMAG1
 40
0.0
  9
$LOFTMAG2
 40
0.0
  9
$LOFTPARAM
 70
7
  9
$LOFTNORMALS
280
1
  9
$LATITUDE
 40
37.795
  9
$LONGITUDE
 40
-122.394
  9
$NORTHDIRECTION
 40
0.0
  9
$TIMEZONE
 70
-8000
  9
$LIGHTGLYPHDISPLAY
280
1
  9
$TILEMODELIGHTSYNCH
280
1
  9
$CMATERIAL
347
20
  9
$SOLIDHIST
280
0
  9
$SHOWHIST
280
1
  9
$DWFFRAME
280
2
  9
$DGNFRAME
280
2
  9
$REALWORLDSCALE
290
1
  9
$INTERFERECOLOR
 62
256
  9
$CSHADOW
280
0
  9
$SHADOWPLANELOCATION
 40
0.0
  0
ENDSEC
  0
SECTION
  2
CLASSES
  0
CLASS
  1
ACDBDICTIONARYWDFLT
  2
AcDbDictionaryWithDefault
  3
ObjectDBX Classes
 90
0
 91
0
280
0
281
0
  0
CLASS
  1
SUN
  2
AcDbSun
  3
SCENEOE
 90
1153
 91
0
280
0
281
0
  0
CLASS
  1
VISUALSTYLE
  2
AcDbVisualStyle
  3
ObjectDBX Classes
 90
4095
 91
0
280
0
281
0
  0
CLASS
  1
MATERIAL
  2
AcDbMaterial
  3
ObjectDBX Classes
 90
1153
 91
0
280
0
281
0
  0
CLASS
  1
SCALE
  2
AcDbScale
  3
ObjectDBX Classes
 90
1153
 91
0
280
0
281
0
  0
CLASS
  1
TABLESTYLE
  2
AcDbTableStyle
  3
ObjectDBX Classes
 90
4095
 91
0
280
0
281
0
  0
CLASS
  1
MLEADERSTYLE
  2
AcDbMLeaderStyle
  3
ACDB_MLEADERSTYLE_CLASS
 90
4095
 91
0
280
0
281
0
  0
CLASS
  1
DICTIONARYVAR
  2
AcDbDictionaryVar
  3
ObjectDBX Classes
 90
0
 91
0
280
0
281
0
  0
CLASS
  1
CELLSTYLEMAP
  2
AcDbCellStyleMap
  3
ObjectDBX Classes
 90
1152
 91
0
280
0
281
0
  0
CLASS
  1
MENTALRAYRENDERSETTINGS
  2
AcDbMentalRayRenderSettings
  3
SCENEOE
 90
1024
 91
0
280
0
281
0
  0
CLASS
  1
ACDBDETAILVIEWSTYLE
  2
AcDbDetailViewStyle
  3
ObjectDBX Classes
 90
1025
 91
0
280
0
281
0
  0
CLASS
  1
ACDBSECTIONVIEWSTYLE
  2
AcDbSectionViewStyle
  3
ObjectDBX Classes
 90
1025
 91
0
280
0
281
0
  0
CLASS
  1
RASTERVARIABLES
  2
AcDbRasterVariables
  3
ISM
 90
0
 91
0
280
0
281
0
  0
CLASS
  1
ACDBPLACEHOLDER
  2
AcDbPlaceHolder
  3
ObjectDBX Classes
 90
0
 91
0
280
0
281
0
  0
CLASS
  1
LAYOUT
  2
AcDbLayout
  3
ObjectDBX Classes
 90
0
 91
0
280
0
281
0
  0
ENDSEC
  0
SECTION
  2
TABLES
  0
TABLE
  2
VPORT
  5
8
330
0
100
AcDbSymbolTable
 70
1
  0
VPORT
  5
23
330
8
100
AcDbSymbolTableRecord
100
AcDbViewportTableRecord
  2
*Active
 70
0
 10
0.0
 20
0.0
 11
1.0
 21
1.0
 12
0.0
 22
0.0
 13
0.0
 23
0.0
 14
0.5
 24
0.5
 15
0.5
 25
0.5
 16
0.0
 26
0.0
 36
1.0
 17
0.0
 27
0.0
 37
0.0
 40
1000.0
 41
1.34
 42
50.0
 43
0.0
 44
0.0
 50
0.0
 51
0.0
 71
0
 72
1000
 73
1
 74
3
 75
0
 76
0
 77
0
 78
0
281
0
 65
0
146
0.0
  0
ENDTAB
  0
TABLE
  2
LTYPE
  5
2
330
0
100
AcDbSymbolTable
 70
3
  0
LTYPE
  5
24
330
2
100
AcDbSymbolTableRecord
100
AcDbLinetypeTableRecord
  2
ByBlock
 70
0
  3

 72
65
 73
0
 40
0.0
  0
LTYPE
  5
25
330
2
100
AcDbSymbolTableRecord
100
AcDbLinetypeTableRecord
  2
ByLayer
 70
0
  3

 72
65
 73
0
 40
0.0
  0
LTYPE
  5
26
330
2
100
AcDbSymbolTableRecord
100
AcDbLinetypeTableRecord
  2
Continuous
 70
0
  3

 72
65
 73
0
 40
0.0
  0
ENDTAB
  0
TABLE
  2
LAYER
  5
1
330
0
100
AcDbSymbolTable
 70
2
  0
LAYER
  5
27
330
1
100
AcDbSymbolTableRecord
100
AcDbLayerTableRecord
  2
0
 70
0
 62
7
  6
Continuous
370
-3
390
13
347
21
  0
LAYER
  5
28
330
1
100
AcDbSymbolTableRecord
100
AcDbLayerTableRecord
  2
Defpoints
 70
0
 62
7
  6
Continuous
290
0
370
-3
390
13
347
21
  0
ENDTAB
  0
TABLE
  2
STYLE
  5
5
330
0
100
AcDbSymbolTable
 70
1
  0
STYLE
  5
29
330
5
100
AcDbSymbolTableRecord
100
AcDbTextStyleTableRecord
  2
Standard
 70
0
 40
0.0
 41
1.0
 50
0.0
 71
0
 42
2.5
  3
txt
  4

  0
ENDTAB
  0
TABLE
  2
VIEW
  5
7
330
0
100
AcDbSymbolTable
 70
0
  0
ENDTAB
  0
TABLE
  2
UCS
  5
6
330
0
100
AcDbSymbolTable
 70
0
  0
ENDTAB
  0
TABLE
  2
APPID
  5
3
330
0
100
AcDbSymbolTable
 70
3
  0
APPID
  5
2A
330
3
100
AcDbSymbolTableRecord
100
AcDbRegAppTableRecord
  2
ACAD
 70
0
  0
APPID
  5
32
330
3
100
AcDbSymbolTableRecord
100
AcDbRegAppTableRecord
  2
HATCHBACKGROUNDCOLOR
 70
0
  0
APPID
  5
33
330
3
100
AcDbSymbolTableRecord
100
AcDbRegAppTableRecord
  2
EZDXF
 70
0
  0
ENDTAB
  0
TABLE
  2
DIMSTYLE
  5
4
330
0
100
AcDbSymbolTable
 70
1
100
AcDbDimStyleTable
  0
DIMSTYLE
105
2B
330
4
100
AcDbSymbolTableRecord
100
AcDbDimStyleTableRecord
  2
Standard
 70
0
 40
1.0
 41
2.5
 42
0.625
 43
3.75
 44
1.25
 45
0.0
 46
0.0
 47
0.0
 48
0.0
 49
2.5
140
2.5
141
2.5
142
0.0
143
0.03937007874
144
1.0
145
0.0
146
1.0
147
0.625
148
0.0
 69
0
 70
0
 71
0
 72
0
 73
0
 74
0
 75
0
 76
0
 77
1
 78
8
 79
3
170
0
171
3
172
1
173
0
174
0
175
0
176
0
177
0
178
0
179
2
271
2
272
2
273
2
274
3
275
0
276
0
277
2
278
44
279
0
280
0
281
0
282
0
283
0
284
8
285
0
286
0
288
0
289
3
290
0
371
-2
372
-2
  0
ENDTAB
  0
TABLE
  2
BLOCK_RECORD
  5
9
330
0
100
AcDbSymbolTable
 70
2
  0
BLOCK_RECORD
  5
17
330
9
100
AcDbSymbolTableRecord
100
AcDbBlockTableRecord
  2
*Model_Space
340
1A
 70
0
280
1
281
0
  0
BLOCK_RECORD
  5
1B
330
9
100
AcDbSymbolTableRecord
100
AcDbBlockTableRecord
  2
*Paper_Space
340
1E
 70
0
280
1
281
0
  0
ENDTAB
  0
ENDSEC
  0
SECTION
  2
BLOCKS
  0
BLOCK
  5
18
330
17
100
AcDbEntity
  8
0
100
AcDbBlockBegin
  2
*Model_Space
 70
0
 10
0.0
 20
0.0
 30
0.0
  3
*Model_Space
  1

  0
ENDBLK
  5
19
330
17
100
AcDbEntity
  8
0
100
AcDbBlockEnd
  0
BLOCK
  5
1C
330
1B
100
AcDbEntity
  8
0
100
AcDbBlockBegin
  2
*Paper_Space
 70
0
 10
0.0
 20
0.0
 30
0.0
  3
*Paper_Space
  1

  0
ENDBLK
  5
1D
330
1B
100
AcDbEntity
  8
0
100
AcDbBlockEnd
  0
ENDSEC
  0
SECTION
  2
ENTITIES
  0
LWPOLYLINE
  5
2F
330
17
100
AcDbEntity
  8
INNER_WALL
 62
1
100
AcDbPolyline
 90
220
 70
0
 10
-133737.26584434236
 20
48601.3456603827
 10
-132489.16866409217
 20
48601.3456603827
 10
-131241.071483842
 20
48601.3456603827
 10
-129992.97430359184
 20
48601.3456603827
 10
-128744.87712334166
 20
48601.3456603827
 10
-127496.7799430915
 20
48601.3456603827
 10
-126248.68276284134
 20
48601.3456603827
 10
-125000.58558259117
 20
48601.3456603827
 10
-123752.488402341
 20
48601.3456603827
 10
-122504.39122209082
 20
48601.3456603827
 10
-121256.29404184067
 20
48601.3456603827
 10
-120008.19686159049
 20
48601.3456603827
 10
-118760.09968134032
 20
48601.3456603827
 10
-117512.00250109014
 20
48601.3456603827
 10
-116263.90532083999
 20
48601.3456603827
 10
-115015.80814058983
 20
48601.3456603827
 10
-113767.71096033965
 20
48601.3456603827
 10
-112519.61378008948
 20
48601.3456603827
 10
-111271.51659983932
 20
48601.3456603827
 10
-110023.41941958915
 20
48601.3456603827
 10
-108775.32223933897
 20
48601.3456603827
 10
-107527.2250590888
 20
48601.3456603827
 10
-106279.12787883864
 20
48601.3456603827
 10
-105031.03069858847
 20
48601.3456603827
 10
-103782.9335183383
 20
48601.3456603827
 10
-102534.83633808812
 20
48601.3456603827
 10
-101286.73915783796
 20
48601.3456603827
 10
-100038.64197758779
 20
48601.3456603827
 10
-98790.54479733761
 20
48601.3456603827
 10
-97542.44761708744
 20
48601.3456603827
 10
-96294.3504368373
 20
48601.3456603827
 10
-95046.25325658712
 20
48601.3456603827
 10
-93798.15607633695
 20
48601.3456603827
 10
-92550.05889608678
 20
48601.3456603827
 10
-91301.96171583662
 20
48601.3456603827
 10
-90053.86453558646
 20
48601.3456603827
 10
-88805.76735533628
 20
48601.3456603827
 10
-87557.67017508611
 20
48601.3456603827
 10
-86309.57299483595
 20
48601.3456603827
 10
-85061.47581458578
 20
48601.3456603827
 10
-83813.3786343356
 20
48601.3456603827
 10
-82565.28145408543
 20
48601.3456603827
 10
-81317.18427383527
 20
48601.3456603827
 10
-80069.0870935851
 20
48601.3456603827
 10
-78820.98991333492
 20
48601.3456603827
 10
-77572.89273308475
 20
48601.3456603827
 10
-76324.79555283459
 20
48601.3456603827
 10
-75076.69837258442
 20
48601.3456603827
 10
-73828.60119233424
 20
48601.3456603827
 10
-72580.50401208407
 20
48601.3456603827
 10
-71332.40683183393
 20
48601.3456603827
 10
-69848.19399536918
 20
48578.677547418614
 10
-68365.3656598388
 20
48510.69435375756
 10
-66885.30503468939
 20
48397.459495368494
 10
-65409.392747596474
 20
48239.07859980251
 10
-63939.00555658989
 20
48035.69940766159
 10
-62475.51506578858
 20
47787.5116347834
 10
-61020.28644594312
 20
47494.7467952709
 10
-59574.67716097945
 20
47157.67798553178
 10
-58140.03570173167
 20
46776.61962952907
 10
-56717.70032804501
 20
46351.92718548076
 10
-55308.99782042259
 20
45883.996814281796
 10
-53915.242242380205
 20
45373.265009958006
 10
-52537.73371466382
 20
44820.208192496415
 10
-51177.75720247309
 20
44225.34226343201
 10
-49836.58131682232
 20
43589.22212460526
 10
-48515.457131156785
 20
42912.44116053956
 10
-47215.61701432856
 20
42195.63068492128
 10
-45938.27348102025
 20
41439.45935169875
 10
-44684.61806068905
 20
40644.632531349635
 10
-43455.82018608623
 20
39811.89165289841
 10
-40317.32977777839
 20
37614.29701040239
 10
-37178.83936947054
 20
35416.70236790636
 10
-34040.348961162694
 20
33219.10772541034
 10
-30901.858552854846
 20
31021.51308291431
 10
-27763.368144547003
 20
28823.91844041829
 10
-24624.877736239152
 20
26626.323797922265
 10
-21486.387327931305
 20
24428.72915542624
 10
-18347.896919623458
 20
22231.134512930214
 10
-15209.406511315614
 20
20033.539870434193
 10
-12070.916103007765
 20
17835.94522793817
 10
-11510.523987686474
 20
17456.83146496509
 10
-10938.234767051736
 20
17095.9275772953
 10
-10354.639950676436
 20
16753.606589785388
 10
-9760.342733428006
 20
16430.22232028445
 10
-9155.95737201523
 20
16126.109013933296
 10
-8542.108550101715
 20
15841.580997693647
 10
-7919.430732642197
 20
15576.932355464498
 10
-7288.567510109063
 20
15332.436624121412
 10
-6650.170933286871
 20
15108.346510792891
 10
-6004.90083932242
 20
14904.893631666073
 10
-5353.424169726954
 20
14722.2882725917
 10
-4696.414281035387
 20
14560.719171735831
 10
-4034.5502488350753
 20
14420.353324502868
 10
-3368.5161658834586
 20
14301.335810931627
 10
-2699.0004350400136
 20
14203.789645742783
 10
-2026.6950577433702
 20
14127.815651192677
 10
-1352.2949187689776
 20
14073.492352864958
 10
-676.4970680066039
 20
14040.87589850772
 10
-0.0
 20
14030.000000000002
 10
0.0
 20
14030.000000000002
 10
106.5795967021241
 20
14031.059839395457
 10
213.11704092794028
 20
14034.238938412896
 10
319.5701968725422
 20
14039.536039711327
 10
425.8969620672333
 20
14046.94904827497
 10
532.0552840311498
 20
14056.475032241839
 10
638.0031769031143
 20
14068.110224063304
 10
743.6987380471408
 20
14081.850021994167
 10
849.1001646250234
 20
14097.688991912655
 10
954.1657701294558
 20
14115.620869469638
 10
1058.8540008711404
 20
14135.63856256618
 10
1163.1234524133688
 20
14157.734154158497
 10
1266.9328859475725
 20
14181.898905389151
 10
1370.2412446033645
 20
14208.1232590433
 10
1473.007669686629
 20
14236.396843328586
 10
1575.191516839229
 20
14266.70847597722
 10
1676.7523721139407
 20
14299.046168668576
 10
1777.6500679582666
 20
14333.397131770615
 10
1877.8446991007916
 20
14369.747779398202
 10
1977.2966383338128
 20
14408.083734786362
 10
1977.2966383338128
 20
14408.083734786362
 10
2498.729114728586
 20
14614.829937931918
 10
3017.9620807940273
 20
14820.242936985083
 10
3534.9955365301375
 20
15024.32273194587
 10
4049.8294819369144
 20
15227.069322814266
 10
4562.46391701436
 20
15428.48270959028
 10
5072.898841762474
 20
15628.562892273914
 10
5581.134256181256
 20
15827.309870865154
 10
6087.170160270705
 20
16024.723645364016
 10
6591.006554030823
 20
16220.80421577049
 10
7092.64343746161
 20
16415.55158208458
 10
7592.080810563063
 20
16608.965744306282
 10
8089.318673335185
 20
16801.046702435604
 10
8584.357025777976
 20
16991.79445647254
 10
9077.195867891434
 20
17181.20900641709
 10
9567.835199675561
 20
17369.290352269258
 10
10056.275021130356
 20
17556.038494029035
 10
10542.515332255818
 20
17741.45343169643
 10
11026.556133051947
 20
17925.535165271445
 10
11508.397423518745
 20
18108.28369475407
 10
11988.039203656213
 20
18289.69902014431
 10
12465.481473464348
 20
18469.781141442167
 10
12940.72423294315
 20
18648.53005864764
 10
13413.767482092622
 20
18825.945771760726
 10
13884.611220912762
 20
19002.02828078143
 10
14353.255449403568
 20
19176.77758570974
 10
14819.700167565046
 20
19350.193686545677
 10
15283.945375397188
 20
19522.276583289226
 10
15745.991072899998
 20
19693.026275940385
 10
16205.837260073473
 20
19862.44276449916
 10
16663.483936917626
 20
20030.526048965556
 10
17118.931103432442
 20
20197.27612933956
 10
17572.178759617924
 20
20362.693005621182
 10
18023.226905474075
 20
20526.776677810423
 10
18472.075541000897
 20
20689.527145907276
 10
18918.724666198385
 20
20850.944409911743
 10
19363.17428106654
 20
21011.02846982383
 10
19805.42438560536
 20
21169.77932564353
 10
20245.474979814855
 20
21327.19697737084
 10
20683.326063695014
 20
21483.281425005767
 10
21118.977637245844
 20
21638.032668548312
 10
21552.429700467343
 20
21791.450707998472
 10
21983.682253359504
 20
21943.53554335624
 10
22412.73529592234
 20
22094.287174621633
 10
22839.58882815584
 20
22243.70560179464
 10
23264.242850060007
 20
22391.790824875257
 10
23686.69736163484
 20
22538.542843863488
 10
24106.95236288035
 20
22683.961658759345
 10
24525.007853796524
 20
22828.047269562805
 10
24940.86383438336
 20
22970.799676273884
 10
25354.52030464087
 20
23112.21887889258
 10
25765.977264569054
 20
23252.30487741889
 10
26175.234714167895
 20
23391.057671852817
 10
26582.292653437406
 20
23528.477262194356
 10
26987.15108237759
 20
23664.563648443513
 10
27389.810000988437
 20
23799.316830600284
 10
27790.269409269957
 20
23932.73680866467
 10
28188.52930722214
 20
24064.82358263667
 10
28584.58969484499
 20
24195.577152516285
 10
28978.45057213852
 20
24324.99751830352
 10
29370.111939102706
 20
24453.084679998363
 10
29759.573795737564
 20
24579.838637600824
 10
30146.836142043092
 20
24705.2593911109
 10
30531.89897801929
 20
24829.346940528594
 10
30914.762303666143
 20
24952.1012858539
 10
31295.426118983676
 20
25073.52242708682
 10
31673.890423971876
 20
25193.61036422736
 10
32050.15521863074
 20
25312.36509727551
 10
32424.220502960274
 20
25429.78662623128
 10
32796.08627696048
 20
25545.87495109466
 10
33165.75254063134
 20
25660.63007186566
 10
33533.21929397289
 20
25774.051988544274
 10
33898.48653698509
 20
25886.140701130502
 10
34261.55426966797
 20
25996.896209624345
 10
34622.42249202151
 20
26106.318514025803
 10
34981.091204045726
 20
26214.40761433488
 10
35337.5604057406
 20
26321.163510551563
 10
35691.83009710615
 20
26426.586202675862
 10
36043.90027814236
 20
26530.67569070778
 10
36393.77094884924
 20
26633.431974647316
 10
36741.442109226795
 20
26734.85505449447
 10
37086.91375927502
 20
26834.944930249232
 10
37430.18589899391
 20
26933.701601911613
 10
37771.25852838346
 20
27031.125069481604
 10
38110.13164744369
 20
27127.21533295922
 10
38446.80525617458
 20
27221.97239234444
 10
38781.279354576145
 20
27315.39624763728
 10
39113.55394264837
 20
27407.48689883773
 10
39443.62902039126
 20
27498.2443459458
 10
39771.504587804826
 20
27587.668588961493
 10
40097.18064488906
 20
27675.759627884792
 10
40420.65719164396
 20
27762.517462715707
 10
40741.934228069535
 20
27847.942093454236
 10
41061.01175416576
 20
27932.03352010038
 10
41377.88976993266
 20
28014.79174265414
 10
41692.56827537024
 20
28096.216761115516
 10
42005.047270478484
 20
28176.308575484512
 10
42315.326755257396
 20
28255.067185761112
 10
42623.40672970696
 20
28332.492591945334
 10
42929.28719382721
 20
28408.58479403717
  0
LWPOLYLINE
  5
30
330
17
100
AcDbEntity
  8
INNER_WALL
 62
1
100
AcDbPolyline
 90
220
 70
0
 10
-133737.26584434236
 20
-48601.3456603827
 10
-132489.16866409217
 20
-48601.3456603827
 10
-131241.071483842
 20
-48601.3456603827
 10
-129992.97430359184
 20
-48601.3456603827
 10
-128744.87712334166
 20
-48601.3456603827
 10
-127496.7799430915
 20
-48601.3456603827
 10
-126248.68276284134
 20
-48601.3456603827
 10
-125000.58558259117
 20
-48601.3456603827
 10
-123752.488402341
 20
-48601.3456603827
 10
-122504.39122209082
 20
-48601.3456603827
 10
-121256.29404184067
 20
-48601.3456603827
 10
-120008.19686159049
 20
-48601.3456603827
 10
-118760.09968134032
 20
-48601.3456603827
 10
-117512.00250109014
 20
-48601.3456603827
 10
-116263.90532083999
 20
-48601.3456603827
 10
-115015.80814058983
 20
-48601.3456603827
 10
-113767.71096033965
 20
-48601.3456603827
 10
-112519.61378008948
 20
-48601.3456603827
 10
-111271.51659983932
 20
-48601.3456603827
 10
-110023.41941958915
 20
-48601.3456603827
 10
-108775.32223933897
 20
-48601.3456603827
 10
-107527.2250590888
 20
-48601.3456603827
 10
-106279.12787883864
 20
-48601.3456603827
 10
-105031.03069858847
 20
-48601.3456603827
 10
-103782.9335183383
 20
-48601.3456603827
 10
-102534.83633808812
 20
-48601.3456603827
 10
-101286.73915783796
 20
-48601.3456603827
 10
-100038.64197758779
 20
-48601.3456603827
 10
-98790.54479733761
 20
-48601.3456603827
 10
-97542.44761708744
 20
-48601.3456603827
 10
-96294.3504368373
 20
-48601.3456603827
 10
-95046.25325658712
 20
-48601.3456603827
 10
-93798.15607633695
 20
-48601.3456603827
 10
-92550.05889608678
 20
-48601.3456603827
 10
-91301.96171583662
 20
-48601.3456603827
 10
-90053.86453558646
 20
-48601.3456603827
 10
-88805.76735533628
 20
-48601.3456603827
 10
-87557.67017508611
 20
-48601.3456603827
 10
-86309.57299483595
 20
-48601.3456603827
 10
-85061.47581458578
 20
-48601.3456603827
 10
-83813.3786343356
 20
-48601.3456603827
 10
-82565.28145408543
 20
-48601.3456603827
 10
-81317.18427383527
 20
-48601.3456603827
 10
-80069.0870935851
 20
-48601.3456603827
 10
-78820.98991333492
 20
-48601.3456603827
 10
-77572.89273308475
 20
-48601.3456603827
 10
-76324.79555283459
 20
-48601.3456603827
 10
-75076.69837258442
 20
-48601.3456603827
 10
-73828.60119233424
 20
-48601.3456603827
 10
-72580.50401208407
 20
-48601.3456603827
 10
-71332.40683183393
 20
-48601.3456603827
 10
-69848.19399536918
 20
-48578.677547418614
 10
-68365.3656598388
 20
-48510.69435375756
 10
-66885.30503468939
 20
-48397.459495368494
 10
-65409.392747596474
 20
-48239.07859980251
 10
-63939.00555658989
 20
-48035.69940766159
 10
-62475.51506578858
 20
-47787.5116347834
 10
-61020.28644594312
 20
-47494.7467952709
 10
-59574.67716097945
 20
-47157.67798553178
 10
-58140.03570173167
 20
-46776.61962952907
 10
-56717.70032804501
 20
-46351.92718548076
 10
-55308.99782042259
 20
-45883.996814281796
 10
-53915.242242380205
 20
-45373.265009958006
 10
-52537.73371466382
 20
-44820.208192496415
 10
-51177.75720247309
 20
-44225.34226343201
 10
-49836.58131682232
 20
-43589.22212460526
 10
-48515.457131156785
 20
-42912.44116053956
 10
-47215.61701432856
 20
-42195.63068492128
 10
-45938.27348102025
 20
-41439.45935169875
 10
-44684.61806068905
 20
-40644.632531349635
 10
-43455.82018608623
 20
-39811.89165289841
 10
-40317.32977777839
 20
-37614.29701040239
 10
-37178.83936947054
 20
-35416.70236790636
 10
-34040.348961162694
 20
-33219.10772541034
 10
-30901.858552854846
 20
-31021.51308291431
 10
-27763.368144547003
 20
-28823.91844041829
 10
-24624.877736239152
 20
-26626.323797922265
 10
-21486.387327931305
 20
-24428.72915542624
 10
-18347.896919623458
 20
-22231.134512930214
 10
-15209.406511315614
 20
-20033.539870434193
 10
-12070.916103007765
 20
-17835.94522793817
 10
-11510.523987686474
 20
-17456.83146496509
 10
-10938.234767051736
 20
-17095.9275772953
 10
-10354.639950676436
 20
-16753.606589785388
 10
-9760.342733428006
 20
-16430.22232028445
 10
-9155.95737201523
 20
-16126.109013933296
 10
-8542.108550101715
 20
-15841.580997693647
 10
-7919.430732642197
 20
-15576.932355464498
 10
-7288.567510109063
 20
-15332.436624121412
 10
-6650.170933286871
 20
-15108.346510792891
 10
-6004.90083932242
 20
-14904.893631666073
 10
-5353.424169726954
 20
-14722.2882725917
 10
-4696.414281035387
 20
-14560.719171735831
 10
-4034.5502488350753
 20
-14420.353324502868
 10
-3368.5161658834586
 20
-14301.335810931627
 10
-2699.0004350400136
 20
-14203.789645742783
 10
-2026.6950577433702
 20
-14127.815651192677
 10
-1352.2949187689776
 20
-14073.492352864958
 10
-676.4970680066039
 20
-14040.87589850772
 10
-0.0
 20
-14030.000000000002
 10
0.0
 20
-14030.000000000002
 10
106.5795967021241
 20
-14031.059839395457
 10
213.11704092794028
 20
-14034.238938412896
 10
319.5701968725422
 20
-14039.536039711327
 10
425.8969620672333
 20
-14046.94904827497
 10
532.0552840311498
 20
-14056.475032241839
 10
638.0031769031143
 20
-14068.110224063304
 10
743.6987380471408
 20
-14081.850021994167
 10
849.1001646250234
 20
-14097.688991912655
 10
954.1657701294558
 20
-14115.620869469638
 10
1058.8540008711404
 20
-14135.63856256618
 10
1163.1234524133688
 20
-14157.734154158497
 10
1266.9328859475725
 20
-14181.898905389151
 10
1370.2412446033645
 20
-14208.1232590433
 10
1473.007669686629
 20
-14236.396843328586
 10
1575.191516839229
 20
-14266.70847597722
 10
1676.7523721139407
 20
-14299.046168668576
 10
1777.6500679582666
 20
-14333.397131770615
 10
1877.8446991007916
 20
-14369.747779398202
 10
1977.2966383338128
 20
-14408.083734786362
 10
1977.2966383338128
 20
-14408.083734786362
 10
2498.729114728586
 20
-14614.829937931918
 10
3017.9620807940273
 20
-14820.242936985083
 10
3534.9955365301375
 20
-15024.32273194587
 10
4049.8294819369144
 20
-15227.069322814266
 10
4562.46391701436
 20
-15428.48270959028
 10
5072.898841762474
 20
-15628.562892273914
 10
5581.134256181256
 20
-15827.309870865154
 10
6087.170160270705
 20
-16024.723645364016
 10
6591.006554030823
 20
-16220.80421577049
 10
7092.64343746161
 20
-16415.55158208458
 10
7592.080810563063
 20
-16608.965744306282
 10
8089.318673335185
 20
-16801.046702435604
 10
8584.357025777976
 20
-16991.79445647254
 10
9077.195867891434
 20
-17181.20900641709
 10
9567.835199675561
 20
-17369.290352269258
 10
10056.275021130356
 20
-17556.038494029035
 10
10542.515332255818
 20
-17741.45343169643
 10
11026.556133051947
 20
-17925.535165271445
 10
11508.397423518745
 20
-18108.28369475407
 10
11988.039203656213
 20
-18289.69902014431
 10
12465.481473464348
 20
-18469.781141442167
 10
12940.72423294315
 20
-18648.53005864764
 10
13413.767482092622
 20
-18825.945771760726
 10
13884.611220912762
 20
-19002.02828078143
 10
14353.255449403568
 20
-19176.77758570974
 10
14819.700167565046
 20
-19350.193686545677
 10
15283.945375397188
 20
-19522.276583289226
 10
15745.991072899998
 20
-19693.026275940385
 10
16205.837260073473
 20
-19862.44276449916
 10
16663.483936917626
 20
-20030.526048965556
 10
17118.931103432442
 20
-20197.27612933956
 10
17572.178759617924
 20
-20362.693005621182
 10
18023.226905474075
 20
-20526.776677810423
 10
18472.075541000897
 20
-20689.527145907276
 10
18918.724666198385
 20
-20850.944409911743
 10
19363.17428106654
 20
-21011.02846982383
 10
19805.42438560536
 20
-21169.77932564353
 10
20245.474979814855
 20
-21327.19697737084
 10
20683.326063695014
 20
-21483.281425005767
 10
21118.977637245844
 20
-21638.032668548312
 10
21552.429700467343
 20
-21791.450707998472
 10
21983.682253359504
 20
-21943.53554335624
 10
22412.73529592234
 20
-22094.287174621633
 10
22839.58882815584
 20
-22243.70560179464
 10
23264.242850060007
 20
-22391.790824875257
 10
23686.69736163484
 20
-22538.542843863488
 10
24106.95236288035
 20
-22683.961658759345
 10
24525.007853796524
 20
-22828.047269562805
 10
24940.86383438336
 20
-22970.799676273884
 10
25354.52030464087
 20
-23112.21887889258
 10
25765.977264569054
 20
-23252.30487741889
 10
26175.234714167895
 20
-23391.057671852817
 10
26582.292653437406
 20
-23528.477262194356
 10
26987.15108237759
 20
-23664.563648443513
 10
27389.810000988437
 20
-23799.316830600284
 10
27790.269409269957
 20
-23932.73680866467
 10
28188.52930722214
 20
-24064.82358263667
 10
28584.58969484499
 20
-24195.577152516285
 10
28978.45057213852
 20
-24324.99751830352
 10
29370.111939102706
 20
-24453.084679998363
 10
29759.573795737564
 20
-24579.838637600824
 10
30146.836142043092
 20
-24705.2593911109
 10
30531.89897801929
 20
-24829.346940528594
 10
30914.762303666143
 20
-24952.1012858539
 10
31295.426118983676
 20
-25073.52242708682
 10
31673.890423971876
 20
-25193.61036422736
 10
32050.15521863074
 20
-25312.36509727551
 10
32424.220502960274
 20
-25429.78662623128
 10
32796.08627696048
 20
-25545.87495109466
 10
33165.75254063134
 20
-25660.63007186566
 10
33533.21929397289
 20
-25774.051988544274
 10
33898.48653698509
 20
-25886.140701130502
 10
34261.55426966797
 20
-25996.896209624345
 10
34622.42249202151
 20
-26106.318514025803
 10
34981.091204045726
 20
-26214.40761433488
 10
35337.5604057406
 20
-26321.163510551563
 10
35691.83009710615
 20
-26426.586202675862
 10
36043.90027814236
 20
-26530.67569070778
 10
36393.77094884924
 20
-26633.431974647316
 10
36741.442109226795
 20
-26734.85505449447
 10
37086.91375927502
 20
-26834.944930249232
 10
37430.18589899391
 20
-26933.701601911613
 10
37771.25852838346
 20
-27031.125069481604
 10
38110.13164744369
 20
-27127.21533295922
 10
38446.80525617458
 20
-27221.97239234444
 10
38781.279354576145
 20
-27315.39624763728
 10
39113.55394264837
 20
-27407.48689883773
 10
39443.62902039126
 20
-27498.2443459458
 10
39771.504587804826
 20
-27587.668588961493
 10
40097.18064488906
 20
-27675.759627884792
 10
40420.65719164396
 20
-27762.517462715707
 10
40741.934228069535
 20
-27847.942093454236
 10
41061.01175416576
 20
-27932.03352010038
 10
41377.88976993266
 20
-28014.79174265414
 10
41692.56827537024
 20
-28096.216761115516
 10
42005.047270478484
 20
-28176.308575484512
 10
42315.326755257396
 20
-28255.067185761112
 10
42623.40672970696
 20
-28332.492591945334
 10
42929.28719382721
 20
-28408.58479403717
  0
LINE
  5
31
330
17
100
AcDbEntity
  8
THROAT_LINE
 62
3
100
AcDbLine
 10
-0.0
 20
14030.000000000002
 30
0.0
 11
-0.0
 21
-14030.000000000002
 31
0.0
  0
ENDSEC
  0
SECTION
  2
OBJECTS
  0
DICTIONARY
  5
A
330
0
100
AcDbDictionary
281
1
  3
ACAD_COLOR
350
B
  3
ACAD_GROUP
350
C
  3
ACAD_LAYOUT
350
D
  3
ACAD_MATERIAL
350
E
  3
ACAD_MLEADERSTYLE
350
F
  3
ACAD_MLINESTYLE
350
10
  3
ACAD_PLOTSETTINGS
350
11
  3
ACAD_PLOTSTYLENAME
350
12
  3
ACAD_SCALELIST
350
14
  3
ACAD_TABLESTYLE
350
15
  3
ACAD_VISUALSTYLE
350
16
  3
EZDXF_META
350
2D
  0
DICTIONARY
  5
B
330
A
100
AcDbDictionary
281
1
  0
DICTIONARY
  5
C
330
A
100
AcDbDictionary
281
1
  0
DICTIONARY
  5
D
330
A
100
AcDbDictionary
281
1
  3
Model
350
1A
  3
Layout1
350
1E
  0
DICTIONARY
  5
E
330
A
100
AcDbDictionary
281
1
  3
ByBlock
350
1F
  3
ByLayer
350
20
  3
Global
350
21
  0
DICTIONARY
  5
F
330
A
100
AcDbDictionary
281
1
  3
Standard
350
2C
  0
DICTIONARY
  5
10
330
A
100
AcDbDictionary
281
1
  3
Standard
350
22
  0
DICTIONARY
  5
11
330
A
100
AcDbDictionary
281
1
  0
ACDBDICTIONARYWDFLT
  5
12
330
A
100
AcDbDictionary
281
1
  3
Normal
350
13
100
AcDbDictionaryWithDefault
340
13
  0
ACDBPLACEHOLDER
  5
13
330
12
  0
DICTIONARY
  5
14
330
A
100
AcDbDictionary
281
1
  0
DICTIONARY
  5
15
330
A
100
AcDbDictionary
281
1
  0
DICTIONARY
  5
16
330
A
100
AcDbDictionary
281
1
  0
LAYOUT
  5
1A
330
D
100
AcDbPlotSettings
  1

  4
A3
  6

 40
7.5
 41
20.0
 42
7.5
 43
20.0
 44
420.0
 45
297.0
 46
0.0
 47
0.0
 48
0.0
 49
0.0
140
0.0
141
0.0
142
1.0
143
1.0
 70
1024
 72
1
 73
0
 74
5
  7

 75
16
 76
0
 77
2
 78
300
147
1.0
148
0.0
149
0.0
100
AcDbLayout
  1
Model
 70
1
 71
0
 10
0.0
 20
0.0
 11
420.0
 21
297.0
 12
0.0
 22
0.0
 32
0.0
 14
1e+20
 24
1e+20
 34
1e+20
 15
-1e+20
 25
-1e+20
 35
-1e+20
146
0.0
 13
0.0
 23
0.0
 33
0.0
 16
1.0
 26
0.0
 36
0.0
 17
0.0
 27
1.0
 37
0.0
 76
1
330
17
  0
LAYOUT
  5
1E
330
D
100
AcDbPlotSettings
  1

  4
A3
  6

 40
7.5
 41
20.0
 42
7.5
 43
20.0
 44
420.0
 45
297.0
 46
0.0
 47
0.0
 48
0.0
 49
0.0
140
0.0
141
0.0
142
1.0
143
1.0
 70
0
 72
1
 73
0
 74
5
  7

 75
16
 76
0
 77
2
 78
300
147
1.0
148
0.0
149
0.0
100
AcDbLayout
  1
Layout1
 70
1
 71
1
 10
0.0
 20
0.0
 11
420.0
 21
297.0
 12
0.0
 22
0.0
 32
0.0
 14
1e+20
 24
1e+20
 34
1e+20
 15
-1e+20
 25
-1e+20
 35
-1e+20
146
0.0
 13
0.0
 23
0.0
 33
0.0
 16
1.0
 26
0.0
 36
0.0
 17
0.0
 27
1.0
 37
0.0
 76
1
330
1B
  0
MATERIAL
  5
1F
102
{ACAD_REACTORS
330
E
102
}
330
E
100
AcDbMaterial
  1
ByBlock
  2

 70
0
 40
1.0
 71
1
 41
1.0
 91
-1023410177
 42
1.0
 72
1
  3

 73
1
 74
1
 75
1
 44
0.5
 73
0
 45
1.0
 46
1.0
 77
1
  4

 78
1
 79
1
170
1
 48
1.0
171
1
  6

172
1
173
1
174
1
140
1.0
141
1.0
175
1
  7

176
1
177
1
178
1
143
1.0
179
1
  8

270
1
271
1
272
1
145
1.0
146
1.0
273
1
  9

274
1
275
1
276
1
 42
1.0
 72
1
  3

 73
1
 74
1
 75
1
 94
63
  0
MATERIAL
  5
20
102
{ACAD_REACTORS
330
E
102
}
330
E
100
AcDbMaterial
  1
ByLayer
  2

 70
0
 40
1.0
 71
1
 41
1.0
 91
-1023410177
 42
1.0
 72
1
  3

 73
1
 74
1
 75
1
 44
0.5
 73
0
 45
1.0
 46
1.0
 77
1
  4

 78
1
 79
1
170
1
 48
1.0
171
1
  6

172
1
173
1
174
1
140
1.0
141
1.0
175
1
  7

176
1
177
1
178
1
143
1.0
179
1
  8

270
1
271
1
272
1
145
1.0
146
1.0
273
1
  9

274
1
275
1
276
1
 42
1.0
 72
1
  3

 73
1
 74
1
 75
1
 94
63
  0
MATERIAL
  5
21
102
{ACAD_REACTORS
330
E
102
}
330
E
100
AcDbMaterial
  1
Global
  2

 70
0
 40
1.0
 71
1
 41
1.0
 91
-1023410177
 42
1.0
 72
1
  3

 73
1
 74
1
 75
1
 44
0.5
 73
0
 45
1.0
 46
1.0
 77
1
  4

 78
1
 79
1
170
1
 48
1.0
171
1
  6

172
1
173
1
174
1
140
1.0
141
1.0
175
1
  7

176
1
177
1
178
1
143
1.0
179
1
  8

270
1
271
1
272
1
145
1.0
146
1.0
273
1
  9

274
1
275
1
276
1
 42
1.0
 72
1
  3

 73
1
 74
1
 75
1
 94
63
  0
MLINESTYLE
  5
22
102
{ACAD_REACTORS
330
10
102
}
330
10
100
AcDbMlineStyle
  2
Standard
 70
0
  3

 62
256
 51
90.0
 52
90.0
 71
2
 49
0.5
 62
256
  6
BYLAYER
 49
-0.5
 62
256
  6
BYLAYER
  0
MLEADERSTYLE
  5
2C
102
{ACAD_REACTORS
330
F
102
}
330
F
100
AcDbMLeaderStyle
179
2
170
2
171
1
172
0
 90
2
 40
0.0
 41
0.0
173
1
 91
-1056964608
 92
-2
290
1
 42
2.0
291
1
 43
8.0
  3
Standard
 44
4.0
300

342
29
174
1
175
1
176
0
178
1
 93
-1056964608
 45
4.0
292
0
297
0
 46
4.0
 94
-1056964608
 47
1.0
 49
1.0
140
1.0
294
1
141
0.0
177
0
142
1.0
295
0
296
0
143
3.75
271
0
272
9
273
9
  0
DICTIONARY
  5
2D
330
A
100
AcDbDictionary
280
1
281
1
  3
CREATED_BY_EZDXF
350
2E
  3
WRITTEN_BY_EZDXF
350
34
  0
DICTIONARYVAR
  5
2E
330
2D
100
DictionaryVariables
280
0
  1
1.4.2 @ 2025-11-30T15:55:12.584911+00:00
  0
DICTIONARYVAR
  5
34
330
2D
100
DictionaryVariables
280
0
  1
1.4.2 @ 2025-11-30T15:55:12.588911+00:00
  0
ENDSEC
  0
EOF
